<svg width="71" height="72" viewBox="0 0 71 72" fill="none" xmlns="http://www.w3.org/2000/svg">
    <path
        d="M18.9592 36.7533L1.77439 54.8671C1.40133 55.2603 1.40947 55.8792 1.79275 56.2624L14.8785 69.3482C15.2762 69.7458 15.9233 69.7376 16.3106 69.3299L33.906 50.8084C34.29 50.4042 34.9303 50.3921 35.3294 50.7814L54.397 69.3839C54.7889 69.7663 55.4153 69.7624 55.8024 69.3753L68.8969 56.2808C69.2874 55.8903 69.2874 55.2571 68.8969 54.8666L50.8022 36.7719C50.4152 36.3849 50.4112 35.7586 50.7933 35.3667L68.9263 16.7688C69.3038 16.3816 69.3051 15.7645 68.9293 15.3757L55.8109 1.80498C55.4224 1.40312 54.78 1.39768 54.3848 1.79289L35.3111 20.8666C34.9206 21.2571 34.2874 21.2571 33.8969 20.8666L16.2863 3.256C15.9056 2.8753 15.2918 2.86435 14.8978 3.23122L1.83353 15.3945C1.43024 15.77 1.40668 16.4009 1.78085 16.8054L18.9679 35.386C19.3257 35.7729 19.3219 36.371 18.9592 36.7533Z"
        fill="#C30000" stroke="black" stroke-width="3" />
</svg>